<?xml version="1.0" standalone="no"?>
<!DOCTYPE svg PUBLIC "-//W3C//DTD SVG 20010904//EN"
 "http://www.w3.org/TR/2001/REC-SVG-20010904/DTD/svg10.dtd">
<svg version="1.0" xmlns="http://www.w3.org/2000/svg"
 width="126.000000pt" height="78.000000pt" viewBox="0 0 126.000000 78.000000"
 preserveAspectRatio="xMidYMid meet">

<g transform="translate(0.000000,78.000000) scale(0.100000,-0.100000)"
fill="#000000" stroke="none">
<path d="M0 390 l0 -390 630 0 630 0 0 390 0 390 -630 0 -630 0 0 -390z m360
135 c41 -21 49 -42 49 -119 l-1 -66 -64 0 c-77 0 -108 17 -124 66 -29 88 57
162 140 119z m266 -60 c-11 -8 -14 -15 -8 -15 7 0 12 -7 12 -15 0 -8 -4 -15
-10 -15 -5 0 -10 -13 -10 -30 0 -16 -4 -30 -10 -30 -5 0 -10 13 -10 29 0 17
-4 33 -10 36 -16 10 20 55 44 55 21 -1 21 -1 2 -15z m-126 -17 l0 -21 23 21
c33 31 57 29 28 -2 l-23 -25 22 -28 c15 -20 18 -29 9 -32 -7 -2 -19 6 -27 18
-18 26 -28 27 -35 1 -11 -41 -27 -20 -27 35 0 42 3 55 15 55 9 0 15 -9 15 -22z
m211 -8 c37 -20 18 -80 -26 -80 -43 0 -63 58 -27 79 22 13 29 13 53 1z m115
-2 c12 -12 9 -71 -3 -75 -9 -3 -13 5 -13 25 0 34 -7 43 -26 35 -8 -3 -14 -18
-14 -34 0 -16 -4 -29 -10 -29 -5 0 -10 20 -10 45 l0 44 35 -3 c19 -1 37 -5 41
-8z m95 2 c30 -17 24 -40 -11 -40 -16 0 -30 -4 -30 -10 0 -5 12 -10 26 -10 14
0 23 -4 19 -10 -16 -25 -75 2 -75 35 0 16 27 45 41 45 6 0 19 -5 30 -10z"/>
<path d="M305 478 c-26 -14 -45 -38 -45 -57 1 -9 7 -4 16 12 9 16 30 35 47 42
18 8 25 14 17 14 -8 0 -24 -5 -35 -11z"/>
<path d="M303 448 c-19 -25 -24 -38 -14 -38 6 0 11 6 11 14 0 8 12 19 28 24
23 9 24 11 6 11 -12 1 -26 -5 -31 -11z"/>
<path d="M321 431 c-7 -5 -12 -13 -10 -18 2 -5 12 -1 22 9 18 19 12 24 -12 9z"/>
<path d="M335 410 c-3 -5 -1 -10 4 -10 6 0 11 5 11 10 0 6 -2 10 -4 10 -3 0
-8 -4 -11 -10z"/>
<path d="M670 415 c-14 -16 -5 -35 16 -35 15 0 20 35 5 44 -5 3 -14 -1 -21 -9z"/>
<path d="M880 420 c0 -5 7 -10 15 -10 8 0 15 5 15 10 0 6 -7 10 -15 10 -8 0
-15 -4 -15 -10z"/>
</g>
</svg>
